<?xml version="1.0" encoding="utf-8"?>
<!-- Generator: Adobe Illustrator 15.0.0, SVG Export Plug-In . SVG Version: 6.00 Build 0)  -->
<!DOCTYPE svg PUBLIC "-//W3C//DTD SVG 1.1//EN" "http://www.w3.org/Graphics/SVG/1.1/DTD/svg11.dtd">
<svg version="1.1" id="Layer_1" xmlns="http://www.w3.org/2000/svg" xmlns:xlink="http://www.w3.org/1999/xlink" x="0px" y="0px"
	 width="566.93px" height="566.93px" viewBox="0 0 566.93 566.93" enable-background="new 0 0 566.93 566.93" xml:space="preserve">
<rect x="399.743" y="238.802" fill="#57646E" width="7.85" height="85.179"/>
<polygon fill="#57646E" points="60.917,246.651 60.917,238.802 11.349,238.802 3.5,238.802 3.5,246.651 3.5,291.712 3.5,299.562 
	3.5,316.132 3.5,323.981 11.349,323.981 60.917,323.981 60.917,316.132 11.349,316.132 11.349,299.562 53.939,299.562 
	53.939,291.712 11.349,291.712 11.349,246.651 "/>
<polygon fill="#57646E" points="331.28,246.651 331.28,238.802 281.713,238.802 273.864,238.802 273.864,246.651 273.864,291.712 
	273.864,299.562 273.864,316.132 273.864,323.981 281.713,323.981 331.28,323.981 331.28,316.132 281.713,316.132 281.713,299.562 
	324.303,299.562 324.303,291.712 281.713,291.712 281.713,246.651 "/>
<path fill="#57646E" d="M162.085,239.093c-23.683,0-42.881,19.003-42.881,42.445c0,23.441,19.198,42.444,42.881,42.444
	c23.682,0,42.88-19.003,42.88-42.444C204.965,258.096,185.767,239.093,162.085,239.093z M162.085,316.787
	c-19.668,0-35.613-15.782-35.613-35.25c0-19.468,15.945-35.25,35.613-35.25c19.667,0,35.611,15.782,35.611,35.25
	C197.696,301.005,181.752,316.787,162.085,316.787z"/>
<path fill="#57646E" d="M455.943,239.093c-23.682,0-42.88,19.003-42.88,42.445c0,23.441,19.198,42.444,42.88,42.444
	s42.88-19.003,42.88-42.444C498.823,258.096,479.625,239.093,455.943,239.093z M455.943,316.787
	c-19.668,0-35.612-15.782-35.612-35.25c0-19.468,15.944-35.25,35.612-35.25s35.611,15.782,35.611,35.25
	C491.555,301.005,475.611,316.787,455.943,316.787z"/>
<polygon fill="#57646E" points="259.474,224.703 259.474,310.292 218.483,238.802 210.633,238.802 210.633,323.981 218.483,323.981 
	218.483,252.492 259.474,323.981 267.323,323.981 267.323,224.703 "/>
<polygon fill="#57646E" points="554.982,238.802 554.982,310.292 513.992,238.802 506.143,238.802 506.143,337.499 513.992,337.499 
	513.992,252.492 554.982,323.981 562.832,323.981 562.832,238.802 "/>
<polygon fill="#57646E" points="393.129,238.802 385.279,238.802 364.457,274.637 343.635,238.802 335.786,238.802 360.587,281.298 
	335.786,323.981 343.417,323.981 364.457,287.93 385.498,323.981 393.129,323.981 368.327,281.298 "/>
<g>
	<path fill="#45A087" d="M68.619,228.774h3.489v20.64c0,0-0.944,2.98-0.581,4.506c0.363,1.526-1.236,17.225-1.599,18.242h-1.309
		V228.774z"/>
	<path fill="#45A087" d="M79.158,228.774h-2.507v0.69c0,0-0.981,1.417-0.654,2.29c0.327,0.872,0.193,1.09-0.066,1.526
		c-0.26,0.436-0.394,0.763,0,1.744c0.394,0.981-0.249,12.21-0.249,13.845s-0.884,6.323-0.557,8.503s0.436,9.484,0.436,9.484
		s-1.562,4.07-0.508,5.306s2.035,2.435,4.106,1.235s6.759-4.579,6.759-4.579s2.18-1.962,3.707-4.361s7.849-7.958,7.849-7.958
		s2.726-0.763,3.816-3.271c1.09-2.507,5.124-5.851,5.124-5.851l3.379,2.581c0,0-1.962,2.834-3.271,3.379
		c-1.308,0.545-2.398,0.872-3.052,2.398c-0.654,1.526-5.342,5.233-5.778,5.56c-0.436,0.327-7.414,6.541-7.414,6.541
		s-2.289,0.981-3.052,2.725c-0.763,1.745-7.195,7.195-7.195,7.195s-0.981,0.654-0.654,2.398c0.327,1.744-0.873,1.308,0.109,3.162
		c0.981,1.853,1.253,2.344,0.6,2.997c-0.654,0.654-1.526-1.253-2.507-1.58c-0.981-0.327-0.6-5.596-0.6-5.596
		s2.834-3.052,0.872-3.052s-3.853,0.581-5.742,0.145c-1.889-0.436-6.541-0.509-5.015,1.308c0,0,1.526-1.09,1.526,2.835
		c0,3.924,0.436,33.724,0,36.484c-0.436,2.762-1.041,5.814-1.828,6.978c-0.789,1.162-1.248,3.488,0,5.377
		c1.247,1.891,1.247,1.891,1.247,1.891h7.705c0,0,1.453-3.198-0.146-3.198c-1.598,0-6.25,0-6.25,0s-1.854-2.252-0.218-3.197
		s1.962-2.908,1.854-4.652s0-6.541,0-6.541s0.981-2.071,0.327-4.143c-0.654-2.071,0-17.988,0-17.988s1.145-0.6,1.145-2.017
		s-1.308-1.689-1.308-4.033s0-4.851,0-4.851h2.943v8.067c0,0,0.6,0,0.6,2.071s0,5.887,0.218,6.868c0.218,0.981-1.09,3.488-1.09,6.65
		c0,3.161,0.109,5.45,0.763,7.304c0.654,1.854,0,12.319,0,12.319h1.853v-20.822c0,0-0.436-3.598,0-5.016
		c0.436-1.417,0-8.721,0-8.721h1.854c0,0,0.981,1.346,2.834,3.234c1.853,1.889,8.067,7.85,8.067,7.85l5.342,6.141
		c0,0,4.906,5.777,4.797,4.252c-0.109-1.526-1.526-4.47-3.162-5.996s-3.815-4.396-3.815-4.396s-2.181-2.581-3.598-3.126
		c-1.417-0.545-1.745-2.797-3.598-4.724c-1.854-1.927-3.816-4.87-2.726-4.979c1.09-0.108,4.797,3.489,6.214,4.361
		c1.417,0.872,2.834,0.654,3.489,1.854s5.124,5.342,5.56,5.777c0.436,0.437,3.488,3.38,4.36,3.707
		c0.873,0.327,3.053,0.545,0.763-1.744c-2.289-2.29-14.281-13.519-15.589-14.718s-4.252-3.742-4.797-4.433s-0.545-1.345,1.635-3.634
		s13.409-12.21,13.409-12.21l9.048-9.157l5.996-5.56c0,0,3.271,0.327,1.744-2.071c-1.526-2.398-5.56-6.977-6.759-6.977
		s-2.071,1.635-2.834,2.507S84.391,265.44,84.391,265.44l-6.541,4.797L79.158,228.774z"/>
	<path fill="#45A087" d="M130.288,220.634c0,0-14.391,13.954-16.353,15.807c-1.962,1.854-6.541,5.233-3.489,4.797
		c3.053-0.436,12.101-7.958,12.101-7.958s0.327-1.854,2.18-3.816c1.854-1.962,7.522-7.958,7.522-7.958s2.725-2.507,1.744-3.38
		C133.013,217.254,130.288,220.634,130.288,220.634z"/>
	<path fill="#45A087" d="M118.623,244.291c0,0-3.707,3.052-3.379,3.488s1.381,0.654,3.961-1.744
		c2.58-2.398,16.644-15.808,16.644-15.808s1.199-0.727,0.545-1.453C135.738,228.047,118.623,244.291,118.623,244.291z"/>
	<path fill="#45A087" d="M138.791,338.264c-3.816-3.598-14.063-13.519-15.263-14.826c-1.199-1.309-7.631-9.267-7.631-9.267
		l-6.541-6.214c0,0,0-4.906-2.616-3.053l-6.432,6.978c0,0-0.927,1.525,0.981,2.289c1.908,0.763,6.323,5.232,6.323,5.232
		l12.537,12.755c0,0,7.958,7.522,9.048,8.722s3.925,4.47,4.252,6.214c0.327,1.744,2.18,2.398,1.962-0.545
		c-0.218-2.943-0.763-5.669,1.854-5.56C139.881,341.098,142.606,341.861,138.791,338.264z M133.013,337.827
		c-1.09,1.199-2.834-0.326-5.996-2.943c-3.162-2.616-4.361-5.45-5.669-5.45s-6.759-5.451-7.958-6.76
		c-1.199-1.308-10.139-9.702-10.139-9.702l4.797-3.815c0,0,10.821,10.901,12.333,13.082c1.513,2.18,5.438,8.176,7.291,9.702
		C129.524,333.467,134.103,336.628,133.013,337.827z"/>
</g>
</svg>
